<svg aria-hidden="true" style="position: absolute; width: 0; height: 0; overflow: hidden;" version="1.1" xmlns="http://www.w3.org/2000/svg" xmlns:xlink="http://www.w3.org/1999/xlink">
<defs>
<symbol id="icon-Instagram_white" viewBox="0 0 32 32">
<path   d="M16.001 7.467c-2.318 0-2.608 0.010-3.519 0.052-0.908 0.042-1.529 0.185-2.071 0.396-0.561 0.218-1.037 0.51-1.512 0.984s-0.766 0.95-0.985 1.512c-0.212 0.543-0.356 1.163-0.396 2.071-0.041 0.91-0.051 1.201-0.051 3.519s0.010 2.607 0.052 3.518c0.042 0.908 0.186 1.529 0.396 2.071 0.218 0.561 0.51 1.037 0.984 1.512s0.95 0.767 1.511 0.985c0.543 0.211 1.163 0.355 2.072 0.396 0.91 0.041 1.201 0.052 3.518 0.052s2.608-0.010 3.518-0.052c0.908-0.042 1.529-0.185 2.072-0.396 0.561-0.218 1.036-0.51 1.511-0.985s0.766-0.95 0.985-1.511c0.21-0.543 0.354-1.163 0.396-2.071 0.041-0.91 0.052-1.2 0.052-3.518s-0.011-2.608-0.052-3.519c-0.043-0.908-0.187-1.529-0.396-2.071-0.219-0.561-0.51-1.037-0.985-1.512s-0.949-0.766-1.511-0.984c-0.544-0.211-1.164-0.355-2.073-0.396-0.91-0.041-1.2-0.052-3.518-0.052h0.003z"></path>
<path   d="M15.235 9.004c0.149-0 0.309-0 0.481-0l0.284 0c2.278 0 2.548 0.008 3.448 0.049 0.832 0.038 1.284 0.177 1.584 0.294 0.398 0.155 0.682 0.34 0.981 0.638s0.484 0.583 0.639 0.981c0.117 0.3 0.256 0.752 0.294 1.584 0.041 0.9 0.050 1.17 0.050 3.447s-0.009 2.548-0.050 3.447c-0.038 0.832-0.177 1.284-0.294 1.584-0.155 0.398-0.34 0.682-0.639 0.98s-0.582 0.484-0.981 0.638c-0.3 0.117-0.752 0.256-1.584 0.294-0.9 0.041-1.17 0.050-3.448 0.050s-2.549-0.009-3.448-0.050c-0.832-0.038-1.284-0.177-1.585-0.294-0.398-0.155-0.683-0.34-0.981-0.638s-0.484-0.582-0.639-0.981c-0.117-0.3-0.256-0.752-0.294-1.584-0.041-0.9-0.049-1.17-0.049-3.449s0.008-2.548 0.049-3.447c0.038-0.832 0.177-1.284 0.294-1.584 0.155-0.398 0.34-0.683 0.639-0.981s0.583-0.484 0.981-0.639c0.301-0.117 0.753-0.256 1.585-0.294 0.787-0.036 1.092-0.046 2.683-0.048v0.002zM20.556 10.421c-0.565 0-1.024 0.458-1.024 1.024s0.459 1.024 1.024 1.024 1.024-0.459 1.024-1.024c0-0.565-0.459-1.024-1.024-1.024v0zM11.619 16c0-2.42 1.962-4.382 4.382-4.382h-0c2.42 0 4.382 1.962 4.382 4.382s-1.961 4.381-4.382 4.381c-2.42 0-4.382-1.961-4.382-4.381z"></path>
<path   d="M16.001 13.156c1.571 0 2.844 1.273 2.844 2.844s-1.274 2.844-2.844 2.844c-1.571 0-2.844-1.274-2.844-2.844s1.273-2.844 2.844-2.844z"></path>
</symbol>
<symbol id="icon-Telegram_white" viewBox="0 0 32 32">
<path  d="M13.339 19.255l-0.272 4.078c0.4 0 0.577-0.183 0.8-0.4l1.922-1.869 3.998 2.954c0.736 0.406 1.267 0.196 1.45-0.683l2.625-12.368c0.269-1.077-0.411-1.566-1.115-1.246l-15.412 5.943c-1.052 0.422-1.046 1.009-0.192 1.27l3.955 1.234 9.156-5.777c0.432-0.262 0.829-0.121 0.503 0.168l-7.419 6.696z"></path>
</symbol>
<symbol id="icon-Twitter_white" viewBox="0 0 32 32">
<path  d="M15.521 13.005l0.034 0.554-0.56-0.068c-2.037-0.26-3.816-1.141-5.327-2.621l-0.739-0.734-0.19 0.542c-0.403 1.209-0.146 2.486 0.694 3.344 0.448 0.475 0.347 0.542-0.425 0.26-0.269-0.090-0.504-0.158-0.526-0.124-0.078 0.079 0.19 1.107 0.403 1.514 0.291 0.565 0.884 1.119 1.533 1.446l0.548 0.26-0.649 0.011c-0.627 0-0.649 0.011-0.582 0.249 0.224 0.734 1.108 1.514 2.093 1.853l0.694 0.237-0.604 0.362c-0.895 0.52-1.947 0.814-2.999 0.836-0.504 0.011-0.918 0.056-0.918 0.090 0 0.113 1.365 0.746 2.16 0.994 2.384 0.734 5.215 0.418 7.342-0.836 1.511-0.893 3.022-2.666 3.727-4.384 0.381-0.915 0.761-2.587 0.761-3.39 0-0.52 0.034-0.588 0.66-1.209 0.369-0.362 0.716-0.757 0.783-0.87 0.112-0.215 0.101-0.215-0.47-0.023-0.951 0.339-1.086 0.294-0.616-0.215 0.347-0.362 0.761-1.017 0.761-1.209 0-0.034-0.168 0.023-0.358 0.124-0.201 0.113-0.649 0.282-0.985 0.384l-0.604 0.192-0.548-0.373c-0.302-0.203-0.727-0.429-0.951-0.497-0.571-0.158-1.444-0.136-1.959 0.045-1.399 0.508-2.283 1.819-2.182 3.254z"></path>
</symbol>
<symbol id="icon-instagram" viewBox="0 0 32 32">
<path d="M16 2.881c4.275 0 4.781 0.019 6.462 0.094 1.563 0.069 2.406 0.331 2.969 0.55 0.744 0.288 1.281 0.638 1.837 1.194 0.563 0.563 0.906 1.094 1.2 1.838 0.219 0.563 0.481 1.412 0.55 2.969 0.075 1.688 0.094 2.194 0.094 6.463s-0.019 4.781-0.094 6.463c-0.069 1.563-0.331 2.406-0.55 2.969-0.288 0.744-0.637 1.281-1.194 1.837-0.563 0.563-1.094 0.906-1.837 1.2-0.563 0.219-1.413 0.481-2.969 0.55-1.688 0.075-2.194 0.094-6.463 0.094s-4.781-0.019-6.463-0.094c-1.563-0.069-2.406-0.331-2.969-0.55-0.744-0.288-1.281-0.637-1.838-1.194-0.563-0.563-0.906-1.094-1.2-1.837-0.219-0.563-0.481-1.413-0.55-2.969-0.075-1.688-0.094-2.194-0.094-6.463s0.019-4.781 0.094-6.463c0.069-1.563 0.331-2.406 0.55-2.969 0.288-0.744 0.638-1.281 1.194-1.838 0.563-0.563 1.094-0.906 1.838-1.2 0.563-0.219 1.412-0.481 2.969-0.55 1.681-0.075 2.188-0.094 6.463-0.094zM16 0c-4.344 0-4.887 0.019-6.594 0.094-1.7 0.075-2.869 0.35-3.881 0.744-1.056 0.412-1.95 0.956-2.837 1.85-0.894 0.888-1.438 1.781-1.85 2.831-0.394 1.019-0.669 2.181-0.744 3.881-0.075 1.713-0.094 2.256-0.094 6.6s0.019 4.887 0.094 6.594c0.075 1.7 0.35 2.869 0.744 3.881 0.413 1.056 0.956 1.95 1.85 2.837 0.887 0.887 1.781 1.438 2.831 1.844 1.019 0.394 2.181 0.669 3.881 0.744 1.706 0.075 2.25 0.094 6.594 0.094s4.888-0.019 6.594-0.094c1.7-0.075 2.869-0.35 3.881-0.744 1.050-0.406 1.944-0.956 2.831-1.844s1.438-1.781 1.844-2.831c0.394-1.019 0.669-2.181 0.744-3.881 0.075-1.706 0.094-2.25 0.094-6.594s-0.019-4.887-0.094-6.594c-0.075-1.7-0.35-2.869-0.744-3.881-0.394-1.063-0.938-1.956-1.831-2.844-0.887-0.887-1.781-1.438-2.831-1.844-1.019-0.394-2.181-0.669-3.881-0.744-1.712-0.081-2.256-0.1-6.6-0.1v0z"></path>
<path d="M16 7.781c-4.537 0-8.219 3.681-8.219 8.219s3.681 8.219 8.219 8.219 8.219-3.681 8.219-8.219c0-4.537-3.681-8.219-8.219-8.219zM16 21.331c-2.944 0-5.331-2.387-5.331-5.331s2.387-5.331 5.331-5.331c2.944 0 5.331 2.387 5.331 5.331s-2.387 5.331-5.331 5.331z"></path>
<path d="M26.462 7.456c0 1.060-0.859 1.919-1.919 1.919s-1.919-0.859-1.919-1.919c0-1.060 0.859-1.919 1.919-1.919s1.919 0.859 1.919 1.919z"></path>
</symbol>
</defs>
</svg>
